<?xml version="1.0" standalone="no"?>
<!DOCTYPE svg PUBLIC "-//W3C//DTD SVG 20010904//EN"
 "http://www.w3.org/TR/2001/REC-SVG-20010904/DTD/svg10.dtd">
<svg version="1.0" xmlns="http://www.w3.org/2000/svg"
 width="85.000000pt" height="85.000000pt" viewBox="0 0 85.000000 85.000000"
 preserveAspectRatio="xMidYMid meet">
<metadata>
Created by potrace 1.11, written by Peter Selinger 2001-2013
</metadata>
<g transform="translate(0.000000,85.000000) scale(0.100000,-0.100000)"
fill="#000000" stroke="none">
<path d="M680 763 c-8 -3 -72 -62 -142 -131 l-128 -127 0 -77 0 -78 78 0 77 0
128 128 c154 154 156 161 73 241 -56 52 -59 54 -86 44z m62 -80 c21 -20 38
-42 38 -48 0 -6 -47 -58 -105 -115 l-106 -105 -46 48 -46 49 104 104 c57 57
108 104 113 104 6 0 27 -17 48 -37z m-202 -290 c0 -2 -20 -3 -45 -3 l-45 0 0
47 0 47 45 -44 c25 -24 45 -45 45 -47z"/>
<path d="M200 709 c-14 -6 -36 -20 -48 -32 -48 -45 -52 -64 -52 -260 0 -174 1
-186 22 -217 49 -71 60 -75 255 -78 97 -2 186 -1 199 2 57 15 142 132 116 158
-16 16 -42 2 -42 -22 0 -11 -15 -37 -34 -58 l-34 -37 -187 0 -187 0 -34 37
-34 38 0 176 c0 148 3 181 17 205 28 46 67 59 187 59 99 0 106 1 106 20 0 19
-6 20 -112 19 -62 0 -124 -5 -138 -10z"/>
</g>
</svg>
