<?xml version="1.0" standalone="no"?>
<!DOCTYPE svg PUBLIC "-//W3C//DTD SVG 20010904//EN"
 "http://www.w3.org/TR/2001/REC-SVG-20010904/DTD/svg10.dtd">
<svg version="1.0" xmlns="http://www.w3.org/2000/svg"
 width="512.000000pt" height="512.000000pt" viewBox="0 0 512.000000 512.000000"
 preserveAspectRatio="xMidYMid meet">
<metadata>
Created by potrace 1.11, written by Peter Selinger 2001-2013
</metadata>
<g transform="translate(0.000000,512.000000) scale(0.100000,-0.100000)"
fill="#000000" stroke="none">
<path d="M1556 4599 c-507 -66 -914 -446 -1022 -959 -25 -115 -25 -352 0 -468
104 -492 486 -864 971 -948 137 -24 379 -15 508 19 120 32 248 87 347 151 65
42 -49 -77 -890 -918 l-965 -967 1535 6 c1328 5 1544 8 1610 21 234 48 434
157 606 328 149 149 257 333 308 525 150 559 -100 1127 -610 1388 -406 208
-899 167 -1261 -103 -26 -20 395 408 937 950 l985 986 -1495 -1 c-822 -1
-1526 -5 -1564 -10z"/>
</g>
</svg>
